<svg xmlns="http://www.w3.org/2000/svg" viewBox="0 0 64 64" width="64" height="64" role="img" aria-labelledby="icon1-title">
  <title id="icon1-title">AR Icon</title>
  <rect width="64" height="64" rx="14" fill="#1c1917"/>
  <!-- A -->
  <path fill="#fafaf8" d="M12,50 L24,14 L32,14 L32,50 L26,50 L26,24 L18,50 Z"/>
  <rect fill="#78716c" x="18" y="38" width="12" height="3" rx="1"/>
  <!-- R -->
  <rect fill="#fafaf8" x="32" y="14" width="6" height="36" rx="1.5"/>
  <path fill="#fafaf8" d="M38,14 Q56,14 56,26 Q56,37 38,38 L38,14 Z"/>
  <path fill="#1c1917" d="M38,20 Q50,20 50,26 Q50,33 38,34 L38,20 Z"/>
  <path fill="#78716c" d="M42,36 L54,50 L48,50 L38,38 Z"/>
</svg>
