<svg xmlns="http://www.w3.org/2000/svg" viewBox="0 0 800 450" fill="none">
  <rect width="800" height="450" fill="#fff7ed"/>
  <rect x="40" y="30" width="720" height="390" rx="12" fill="#fff" stroke="#fed7aa" stroke-width="1"/>
  <rect x="60" y="55" width="140" height="12" rx="6" fill="#ea580c"/>
  <rect x="60" y="85" width="300" height="8" rx="4" fill="#fdba74" opacity="0.4"/>
  <rect x="60" y="110" width="200" height="160" rx="12" fill="#fff7ed" stroke="#fed7aa" stroke-width="1"/>
  <rect x="80" y="130" width="160" height="80" rx="8" fill="#fef3c7"/>
  <rect x="80" y="225" width="120" height="8" rx="4" fill="#1e293b"/>
  <rect x="80" y="240" width="80" height="6" rx="3" fill="#ea580c"/>
  <rect x="80" y="252" width="70" height="20" rx="10" fill="#ea580c"/>
  <text x="115" y="266" text-anchor="middle" fill="#fff" font-size="9" font-weight="600" font-family="system-ui">Add</text>
  <rect x="280" y="110" width="200" height="160" rx="12" fill="#fff7ed" stroke="#fed7aa" stroke-width="1"/>
  <rect x="300" y="130" width="160" height="80" rx="8" fill="#fef3c7"/>
  <rect x="300" y="225" width="120" height="8" rx="4" fill="#1e293b"/>
  <rect x="300" y="240" width="80" height="6" rx="3" fill="#ea580c"/>
  <rect x="300" y="252" width="70" height="20" rx="10" fill="#ea580c"/>
  <text x="335" y="266" text-anchor="middle" fill="#fff" font-size="9" font-weight="600" font-family="system-ui">Add</text>
  <rect x="500" y="110" width="200" height="160" rx="12" fill="#fff7ed" stroke="#fed7aa" stroke-width="1"/>
  <rect x="520" y="130" width="160" height="80" rx="8" fill="#fef3c7"/>
  <rect x="520" y="225" width="120" height="8" rx="4" fill="#1e293b"/>
  <rect x="520" y="240" width="80" height="6" rx="3" fill="#ea580c"/>
  <rect x="520" y="252" width="70" height="20" rx="10" fill="#ea580c"/>
  <text x="555" y="266" text-anchor="middle" fill="#fff" font-size="9" font-weight="600" font-family="system-ui">Add</text>
  <rect x="60" y="300" width="680" height="90" rx="10" fill="#fff7ed" stroke="#fed7aa" stroke-width="1"/>
  <rect x="80" y="320" width="100" height="8" rx="4" fill="#1e293b"/>
  <rect x="80" y="340" width="200" height="6" rx="3" fill="#fdba74"/>
  <rect x="80" y="355" width="300" height="6" rx="3" fill="#fed7aa"/>
  <rect x="610" y="330" width="100" height="32" rx="16" fill="#ea580c"/>
  <text x="660" y="351" text-anchor="middle" fill="#fff" font-size="12" font-weight="600" font-family="system-ui">Order</text>
</svg>
