<svg xmlns="http://www.w3.org/2000/svg" viewBox="0 0 800 450" fill="none">
  <rect width="800" height="450" fill="#1e1e2e"/>
  <rect x="0" y="0" width="200" height="450" fill="#181825"/>
  <rect x="20" y="20" width="160" height="8" rx="4" fill="#313244"/>
  <rect x="20" y="40" width="130" height="6" rx="3" fill="#45475a"/>
  <rect x="30" y="55" width="120" height="6" rx="3" fill="#585b70"/>
  <rect x="30" y="70" width="110" height="6" rx="3" fill="#585b70"/>
  <rect x="20" y="90" width="140" height="6" rx="3" fill="#45475a"/>
  <rect x="30" y="105" width="100" height="6" rx="3" fill="#585b70"/>
  <rect x="30" y="120" width="130" height="6" rx="3" fill="#585b70"/>
  <rect x="30" y="135" width="90" height="6" rx="3" fill="#585b70"/>
  <rect x="200" y="0" width="600" height="30" rx="0" fill="#181825"/>
  <rect x="210" y="10" width="60" height="12" rx="3" fill="#cba6f7" opacity="0.3"/>
  <rect x="280" y="10" width="50" height="12" rx="3" fill="#313244"/>
  <rect x="340" y="10" width="55" height="12" rx="3" fill="#313244"/>
  <rect x="230" y="50" width="60" height="6" rx="3" fill="#cba6f7"/>
  <rect x="300" y="50" width="100" height="6" rx="3" fill="#89b4fa"/>
  <rect x="410" y="50" width="30" height="6" rx="3" fill="#f9e2af"/>
  <rect x="230" y="65" width="40" height="6" rx="3" fill="#f38ba8"/>
  <rect x="280" y="65" width="80" height="6" rx="3" fill="#a6e3a1"/>
  <rect x="370" y="65" width="50" height="6" rx="3" fill="#fab387"/>
  <rect x="250" y="80" width="90" height="6" rx="3" fill="#89b4fa"/>
  <rect x="350" y="80" width="60" height="6" rx="3" fill="#f9e2af"/>
  <rect x="420" y="80" width="40" height="6" rx="3" fill="#cdd6f4"/>
  <rect x="250" y="95" width="70" height="6" rx="3" fill="#a6e3a1"/>
  <rect x="330" y="95" width="110" height="6" rx="3" fill="#cdd6f4"/>
  <rect x="230" y="115" width="50" height="6" rx="3" fill="#cba6f7"/>
  <rect x="290" y="115" width="120" height="6" rx="3" fill="#89b4fa"/>
  <rect x="250" y="130" width="60" height="6" rx="3" fill="#f38ba8"/>
  <rect x="320" y="130" width="90" height="6" rx="3" fill="#a6e3a1"/>
  <rect x="250" y="145" width="80" height="6" rx="3" fill="#fab387"/>
  <rect x="340" y="145" width="70" height="6" rx="3" fill="#89dceb"/>
  <rect x="250" y="160" width="50" height="6" rx="3" fill="#cdd6f4"/>
  <rect x="310" y="160" width="100" height="6" rx="3" fill="#f9e2af"/>
  <rect x="230" y="180" width="40" height="6" rx="3" fill="#cba6f7"/>
  <rect x="230" y="200" width="60" height="6" rx="3" fill="#cba6f7"/>
  <rect x="300" y="200" width="80" height="6" rx="3" fill="#89b4fa"/>
  <rect x="250" y="215" width="70" height="6" rx="3" fill="#a6e3a1"/>
  <rect x="330" y="215" width="60" height="6" rx="3" fill="#f9e2af"/>
  <rect x="250" y="230" width="100" height="6" rx="3" fill="#cdd6f4"/>
  <rect x="250" y="245" width="45" height="6" rx="3" fill="#f38ba8"/>
  <rect x="305" y="245" width="80" height="6" rx="3" fill="#89b4fa"/>
  <rect x="230" y="265" width="30" height="6" rx="3" fill="#cba6f7"/>
  <text x="220" y="53" fill="#585b70" font-size="10" font-family="monospace">1</text>
  <text x="220" y="68" fill="#585b70" font-size="10" font-family="monospace">2</text>
  <text x="220" y="83" fill="#585b70" font-size="10" font-family="monospace">3</text>
  <text x="220" y="98" fill="#585b70" font-size="10" font-family="monospace">4</text>
  <text x="220" y="118" fill="#585b70" font-size="10" font-family="monospace">5</text>
  <text x="220" y="133" fill="#585b70" font-size="10" font-family="monospace">6</text>
  <text x="220" y="148" fill="#585b70" font-size="10" font-family="monospace">7</text>
  <text x="220" y="163" fill="#585b70" font-size="10" font-family="monospace">8</text>
  <text x="220" y="183" fill="#585b70" font-size="10" font-family="monospace">9</text>
  <text x="215" y="203" fill="#585b70" font-size="10" font-family="monospace">10</text>
  <text x="215" y="218" fill="#585b70" font-size="10" font-family="monospace">11</text>
  <text x="215" y="233" fill="#585b70" font-size="10" font-family="monospace">12</text>
  <text x="215" y="248" fill="#585b70" font-size="10" font-family="monospace">13</text>
  <text x="215" y="268" fill="#585b70" font-size="10" font-family="monospace">14</text>
  <rect x="200" y="420" width="600" height="30" fill="#181825"/>
  <rect x="220" y="430" width="200" height="8" rx="4" fill="#313244"/>
</svg>
