<svg xmlns="http://www.w3.org/2000/svg" viewBox="0 0 512 512" role="img" aria-labelledby="c3-title">
  <title id="c3-title">AR Concept 3 - Framed Geometric</title>
  <g id="icon">
    <rect x="52" y="52" width="408" height="408" rx="72" fill="#f2efea" stroke="#8c857d" stroke-width="18"/>
    <path fill="#2a2623" d="M128 370L214 138H276V370H238V202L170 370Z"/>
    <rect x="170" y="274" width="78" height="18" rx="9" fill="#8c857d"/>
    <rect x="276" y="138" width="40" height="232" rx="10" fill="#2a2623"/>
    <path fill="#2a2623" d="M316 138H344C392 138 424 165 424 208C424 254 389 282 337 286H316Z"/>
    <path fill="#f2efea" d="M344 172H346C369 172 384 187 384 208C384 230 368 248 343 249H344Z"/>
    <path fill="#8c857d" d="M340 286L422 370H372L316 312V286Z"/>
  </g>
</svg>
